<?xml version="1.0" encoding="UTF-8"?>
<svg version="1.1" xmlns="http://www.w3.org/2000/svg" width="225" height="225">
<path d="M0 0 C74.25 0 148.5 0 225 0 C225 74.25 225 148.5 225 225 C150.75 225 76.5 225 0 225 C0 150.75 0 76.5 0 0 Z " fill="#FDFDFD" transform="translate(0,0)"/>
<path d="M0 0 C52.47 0 104.94 0 159 0 C157.84132315 18.53882959 157.84132315 18.53882959 157.203125 26.453125 C157.12938156 27.3764563 157.05563812 28.2997876 156.97966003 29.25109863 C156.73872419 32.2509222 156.49476047 35.25048618 156.25 38.25 C156.16485138 39.29869263 156.07970276 40.34738525 155.99197388 41.42785645 C154.53387858 59.31431765 152.86777578 77.17642638 151.11499023 95.03616333 C149.55752623 110.91359409 148.12989488 126.79395797 146.90014648 142.70019531 C146.37505084 149.48244119 145.81147904 156.24518834 145 163 C144.02111816 163.27094482 144.02111816 163.27094482 143.02246094 163.54736328 C139.93103411 164.40440858 136.84037774 165.26417926 133.75 166.125 C132.61208008 166.44194824 131.47416016 166.75889648 130.30175781 167.08544922 C124.23160904 168.78519281 118.18040222 170.52583359 112.15795898 172.38769531 C109.72776178 173.13180923 107.28924508 173.84114316 104.84765625 174.546875 C101.57036419 175.49811314 98.38431208 176.58386109 95.18359375 177.765625 C79.93337974 182.94704845 67.00149211 178.88673674 52.2109375 174.28759766 C47.82089368 172.92917338 43.40018479 171.69595685 38.96875 170.48046875 C37.4854151 170.07249326 36.00209782 169.66445368 34.51879883 169.25634766 C33.79914948 169.05841614 33.07950012 168.86048462 32.33804321 168.65655518 C28.92322861 167.71326407 25.51321308 166.75364842 22.10546875 165.78515625 C20.40620239 165.30381226 20.40620239 165.30381226 18.67260742 164.81274414 C16 164 16 164 14 163 C13.52929688 160.52929688 13.52929688 160.52929688 13.21875 157.21875 C13.03892578 155.3625 13.03892578 155.3625 12.85546875 153.46875 C12.73816406 152.1590625 12.62085938 150.849375 12.5 149.5 C12.38269531 148.283125 12.26539063 147.06625 12.14453125 145.8125 C11.36687497 137.5843948 10.70433525 129.34845579 10.0546875 121.109375 C9.10849867 109.12189302 8.04284639 97.14734952 6.94003296 85.17337036 C6.50424309 80.43777027 6.07264082 75.70179093 5.64073181 70.96583557 C5.31012104 67.34096425 4.97911304 63.71612943 4.64794922 60.09130859 C4.54021179 58.9119574 4.43247437 57.7326062 4.32147217 56.51751709 C4.10989328 54.20244157 3.89818612 51.88737777 3.68634033 49.57232666 C3.10435212 43.21096059 2.52557411 36.849321 1.9520874 30.48718262 C1.77734876 28.55566558 1.60130795 26.62426586 1.42388916 24.69299316 C1.17901212 22.02608616 0.93858922 19.35881234 0.69921875 16.69140625 C0.62760025 15.92302933 0.55598175 15.1546524 0.48219299 14.36299133 C0.4180571 13.63806992 0.3539212 12.9131485 0.2878418 12.16625977 C0.23186325 11.55049576 0.1758847 10.93473175 0.11820984 10.30030823 C-0.05800905 6.8711709 0 3.43366217 0 0 Z " fill="#E44D26" transform="translate(33,44)"/>
<path d="M0 0 C33.33 0 66.66 0 101 0 C100.34 6.93 99.68 13.86 99 21 C73.92 21 48.84 21 23 21 C23.33 23.97 23.66 26.94 24 30 C24 33.63 24 37.26 24 41 C48.09 41 72.18 41 97 41 C93.74259681 83.93849658 93.74259681 83.93849658 92 102 C87.19278583 103.6608125 82.34217733 105.04172512 77.4375 106.375 C70.91314745 108.15171211 64.48111231 110.08268667 58.08984375 112.30078125 C50.86456671 113.9358313 44.29548064 112.89717523 37.28125 110.84765625 C36.49729858 110.62806747 35.71334717 110.4084787 34.90563965 110.18223572 C33.26725706 109.72109037 31.63041452 109.25444018 29.99511719 108.7824707 C27.48174846 108.05723348 24.96415921 107.34852963 22.4453125 106.64257812 C20.84869288 106.19104176 19.25232872 105.73860088 17.65625 105.28515625 C16.90218872 105.07157974 16.14812744 104.85800323 15.37121582 104.63795471 C10.11779261 103.11779261 10.11779261 103.11779261 9 102 C8.77321271 100.64523946 8.60558145 99.28044514 8.46484375 97.9140625 C8.3776709 97.07004883 8.29049805 96.22603516 8.20068359 95.35644531 C8.11383301 94.45506836 8.02698242 93.55369141 7.9375 92.625 C7.84807129 91.7184668 7.75864258 90.81193359 7.66650391 89.87792969 C7.07281458 83.55655194 6.81318082 77.35185224 7 71 C13.6 71 20.2 71 27 71 C27.495 78.92 27.495 78.92 28 87 C29.485 87.28875 30.97 87.5775 32.5 87.875 C35.75002529 88.51585006 38.93498426 89.23535418 42.125 90.125 C50.05104764 91.91475269 56.05962065 90.66489236 63.72094727 88.42333984 C67.01162323 87.46783135 69.52908156 87 73 87 C73.03758423 85.97845825 73.03758423 85.97845825 73.07592773 84.9362793 C73.19190952 81.85316245 73.31462616 78.77034954 73.4375 75.6875 C73.47681641 74.61564453 73.51613281 73.54378906 73.55664062 72.43945312 C73.59853516 71.41142578 73.64042969 70.38339844 73.68359375 69.32421875 C73.72025146 68.37635498 73.75690918 67.42849121 73.79467773 66.4519043 C74 64 74 64 75 61 C74.13778336 61.00222061 73.27556671 61.00444122 72.38722229 61.00672913 C64.27893964 61.02672995 56.17066523 61.04197306 48.06236362 61.05181217 C43.89337172 61.05704051 39.72440013 61.06413726 35.55541992 61.07543945 C31.53542314 61.08627008 27.51544595 61.09227721 23.49543571 61.09487724 C21.95837025 61.09673118 20.42130591 61.10035119 18.88424873 61.10573006 C16.73864513 61.11294284 14.59312345 61.11399084 12.44750977 61.11352539 C11.22395279 61.115746 10.00039581 61.11796661 8.73976135 61.12025452 C6 61 6 61 5 60 C4.8063645 58.41681191 4.67551994 56.82588705 4.5703125 55.234375 C4.4986084 54.21239014 4.4269043 53.19040527 4.35302734 52.13745117 C4.27777832 51.01959229 4.2025293 49.9017334 4.125 48.75 C3.30699839 37.27942325 2.21312316 25.86546738 0.96533203 14.43457031 C0.84013184 13.2740918 0.71493164 12.11361328 0.5859375 10.91796875 C0.4729834 9.89469482 0.3600293 8.8714209 0.24365234 7.81713867 C0.01901524 5.21985661 0 2.60697832 0 0 Z " fill="#EBE5E3" transform="translate(62,77)"/>
<path d="M0 0 C1.15249741 0.00222061 2.30499481 0.00444122 3.49241638 0.00672913 C5.4443264 0.00684242 5.4443264 0.00684242 7.43566895 0.00695801 C8.86661313 0.01206543 10.29755694 0.01728144 11.72850037 0.02259827 C13.18438672 0.02446249 14.64027369 0.02588637 16.09616089 0.02688599 C19.93488791 0.03071086 23.77357731 0.04054088 27.61228943 0.05158997 C31.52667227 0.06180474 35.44106117 0.06638375 39.35545349 0.07142639 C47.04101755 0.08216318 54.72655057 0.09923923 62.41209412 0.12025452 C61.12627432 18.18304409 59.65644601 36.22194118 58.02928162 54.25697327 C57.807757 56.72943532 57.5864168 59.2019139 57.36524963 61.67440796 C56.79170468 68.08081751 56.21571043 74.48700439 55.6391449 80.8931427 C55.04761214 87.47066294 54.4584801 94.0483982 53.86912537 100.62611389 C52.71908569 113.45770149 51.56653144 126.28906185 50.41209412 139.12025452 C46.54557848 140.82026806 42.79159999 142.42439786 38.71775818 143.56239319 C37.86707764 143.80241562 37.01639709 144.04243805 36.13993835 144.28973389 C35.24490601 144.53673538 34.34987366 144.78373688 33.42771912 145.03822327 C32.49030884 145.30033096 31.55289856 145.56243866 30.58708191 145.83248901 C28.61778683 146.38185574 26.64782271 146.92882923 24.67723083 147.473526 C21.65597982 148.30944622 18.63746104 149.15473472 15.61912537 150.00111389 C13.70131179 150.53487486 11.78334815 151.06809702 9.86521912 151.60072327 C8.96208984 151.85379745 8.05896057 152.10687164 7.12846375 152.36761475 C6.29039185 152.59818069 5.45231995 152.82874664 4.58885193 153.06629944 C3.85273682 153.27042953 3.1166217 153.47455963 2.35820007 153.68487549 C0.41209412 154.12025452 0.41209412 154.12025452 -2.58790588 154.12025452 C-2.58790588 147.52025452 -2.58790588 140.92025452 -2.58790588 134.12025452 C-3.24790588 133.79025452 -3.90790588 133.46025452 -4.58790588 133.12025452 C-3.8717511 132.94574768 -3.15559631 132.77124084 -2.41773987 132.59144592 C6.3355036 130.43408087 15.00175934 128.01691944 23.67185974 125.54994202 C24.72953552 125.25087952 25.7872113 124.95181702 26.87693787 124.64369202 C27.82174011 124.37476135 28.76654236 124.10583069 29.73997498 123.82875061 C32.28512527 123.15391953 34.82495799 122.60642381 37.41209412 122.12025452 C37.73404166 118.47850521 38.05584906 114.83674359 38.37742615 111.19496155 C38.6513516 108.09303008 38.92583919 104.99114901 39.20066833 101.88929749 C39.82027522 94.88787645 40.43602835 87.88635389 41.02146912 80.88197327 C41.10993103 79.8314679 41.19839294 78.78096252 41.28953552 77.69862366 C41.45079013 75.77485932 41.60945014 73.85087518 41.76512146 71.926651 C41.87267761 70.64963318 41.87267761 70.64963318 41.98240662 69.34681702 C42.04186462 68.62059143 42.10132263 67.89436584 42.1625824 67.14613342 C42.41209412 65.12025452 42.41209412 65.12025452 43.41209412 61.12025452 C19.32209412 61.12025452 -4.76790588 61.12025452 -29.58790588 61.12025452 C-30.58790588 50.12025452 -30.58790588 50.12025452 -30.58790588 41.12025452 C-5.50790588 41.12025452 19.57209412 41.12025452 45.41209412 41.12025452 C45.41209412 37.16025452 45.41209412 33.20025452 45.41209412 29.12025452 C46.40209412 24.66525452 46.40209412 24.66525452 47.41209412 20.12025452 C30.58209412 20.12025452 13.75209412 20.12025452 -3.58790588 20.12025452 C-3.58790588 0.1667224 -3.58790588 0.1667224 0 0 Z " fill="#F06428" transform="translate(115.58790588378906,56.87974548339844)"/>
<path d="M0 0 C15.51 0 31.02 0 47 0 C43.74259681 42.93849658 43.74259681 42.93849658 42 61 C37.19278583 62.6608125 32.34217733 64.04172512 27.4375 65.375 C20.91314745 67.15171211 14.48111231 69.08268667 8.08984375 71.30078125 C0.86456671 72.9358313 -5.70451936 71.89717523 -12.71875 69.84765625 C-13.50270142 69.62806747 -14.28665283 69.4084787 -15.09436035 69.18223572 C-16.73274294 68.72109037 -18.36958548 68.25444018 -20.00488281 67.7824707 C-22.51825154 67.05723348 -25.03584079 66.34852963 -27.5546875 65.64257812 C-29.15130712 65.19104176 -30.74767128 64.73860088 -32.34375 64.28515625 C-33.09781128 64.07157974 -33.85187256 63.85800323 -34.62878418 63.63795471 C-39.88220739 62.11779261 -39.88220739 62.11779261 -41 61 C-41.22678729 59.64523946 -41.39441855 58.28044514 -41.53515625 56.9140625 C-41.6223291 56.07004883 -41.70950195 55.22603516 -41.79931641 54.35644531 C-41.88616699 53.45506836 -41.97301758 52.55369141 -42.0625 51.625 C-42.15192871 50.7184668 -42.24135742 49.81193359 -42.33349609 48.87792969 C-42.92718542 42.55655194 -43.18681918 36.35185224 -43 30 C-36.4 30 -29.8 30 -23 30 C-22.505 37.92 -22.505 37.92 -22 46 C-20.515 46.28875 -19.03 46.5775 -17.5 46.875 C-14.24997471 47.51585006 -11.06501574 48.23535418 -7.875 49.125 C0.05104764 50.91475269 6.05962065 49.66489236 13.72094727 47.42333984 C17.01162323 46.46783135 19.52908156 46 23 46 C23.03758423 44.97845825 23.03758423 44.97845825 23.07592773 43.9362793 C23.19190952 40.85316245 23.31462616 37.77034954 23.4375 34.6875 C23.47681641 33.61564453 23.51613281 32.54378906 23.55664062 31.43945312 C23.59853516 30.41142578 23.64042969 29.38339844 23.68359375 28.32421875 C23.72025146 27.37635498 23.75690918 26.42849121 23.79467773 25.4519043 C24 23 24 23 25 20 C16.75 20 8.5 20 0 20 C0 13.4 0 6.8 0 0 Z " fill="#FEFDFC" transform="translate(112,118)"/>
<path d="M0 0 C6.6 0 13.2 0 20 0 C20.495 7.92 20.495 7.92 21 16 C22.36125 16.268125 23.7225 16.53625 25.125 16.8125 C31.76488182 18.13856835 38.38195261 19.5695863 45 21 C44.01 21.495 44.01 21.495 43 22 C43 28.6 43 35.2 43 42 C37.46265568 41.30783196 32.54189514 40.48985157 27.25390625 38.96875 C26.20903297 38.67478333 26.20903297 38.67478333 25.14305115 38.37487793 C23.6877633 37.96411359 22.23326231 37.55055185 20.77954102 37.13427734 C18.54572481 36.49520076 16.30926442 35.86611645 14.07226562 35.23828125 C12.65348172 34.8365166 11.23485585 34.43419334 9.81640625 34.03125 C9.14670303 33.84268433 8.47699982 33.65411865 7.78700256 33.45983887 C3.11582711 32.11582711 3.11582711 32.11582711 2 31 C1.77321271 29.64523946 1.60558145 28.28044514 1.46484375 26.9140625 C1.3776709 26.07004883 1.29049805 25.22603516 1.20068359 24.35644531 C1.11383301 23.45506836 1.02698242 22.55369141 0.9375 21.625 C0.84807129 20.7184668 0.75864258 19.81193359 0.66650391 18.87792969 C0.07281458 12.55655194 -0.18681918 6.35185224 0 0 Z " fill="#EAE9E8" transform="translate(69,148)"/>
<path d="M0 0 C16.5 0 33 0 50 0 C49.67 6.27 49.34 12.54 49 19 C32.83 19 16.66 19 0 19 C0 12.73 0 6.46 0 0 Z " fill="#FEFEFE" transform="translate(112,78)"/>
<path d="M0 0 C11.22 0 22.44 0 34 0 C34 9.9 34 19.8 34 30 C30.7 30 27.4 30 24 30 C23.67 26.04 23.34 22.08 23 18 C21.35 20.31 19.7 22.62 18 25 C13.60841671 23.5361389 13.12052567 21.02168662 11 17 C10.67 21.29 10.34 25.58 10 30 C6.7 30 3.4 30 0 30 C0 20.1 0 10.2 0 0 Z " fill="#020202" transform="translate(114,0)"/>
<path d="M0 0 C9.57 0 19.14 0 29 0 C29 9.9 29 19.8 29 30 C25.7 30 22.4 30 19 30 C19 26.7 19 23.4 19 20 C16.03 20 13.06 20 10 20 C10 23.3 10 26.6 10 30 C6.7 30 3.4 30 0 30 C0 20.1 0 10.2 0 0 Z " fill="#020202" transform="translate(48,0)"/>
<path d="M0 0 C7.92 0 15.84 0 24 0 C23.34 8.25 22.68 16.5 22 25 C17.111875 26.2684375 17.111875 26.2684375 12.125 27.5625 C11.09906738 27.83263916 10.07313477 28.10277832 9.01611328 28.38110352 C8.20899902 28.58662842 7.40188477 28.79215332 6.5703125 29.00390625 C5.32918701 29.32597046 5.32918701 29.32597046 4.06298828 29.65454102 C2 30 2 30 0 29 C0 19.43 0 9.86 0 0 Z " fill="#F16528" transform="translate(113,139)"/>
<path d="M0 0 C8.91 0 17.82 0 27 0 C27 6.27 27 12.54 27 19 C18.42 19 9.84 19 1 19 C0 9 0 9 0 0 Z " fill="#E34B23" transform="translate(85,98)"/>
<path d="M0 0 C8.91 0 17.82 0 27 0 C27 3.3 27 6.6 27 10 C24.03 10 21.06 10 18 10 C18 16.6 18 23.2 18 30 C15.03 30 12.06 30 9 30 C9 23.4 9 16.8 9 10 C6.03 10 3.06 10 0 10 C0 6.7 0 3.4 0 0 Z " fill="#000000" transform="translate(82,0)"/>
<path d="M0 0 C2.97 0 5.94 0 9 0 C9 6.93 9 13.86 9 21 C13.62 21 18.24 21 23 21 C23 23.97 23 26.94 23 30 C15.41 30 7.82 30 0 30 C0 20.1 0 10.2 0 0 Z " fill="#000000" transform="translate(154,0)"/>
<path d="M0 0 C2.97 0 5.94 0 9 0 C9 3.3 9 6.6 9 10 C6.03 10 3.06 10 0 10 C0 6.7 0 3.4 0 0 Z " fill="#FFFFFF" transform="translate(58,0)"/>
<path d="M0 0 C4.29 0 8.58 0 13 0 C8.5078125 7.8125 8.5078125 7.8125 7 10 C6.34 10 5.68 10 5 10 C3.7109375 8.3203125 3.7109375 8.3203125 2.375 6.125 C1.92898437 5.40570312 1.48296875 4.68640625 1.0234375 3.9453125 C0 2 0 2 0 0 Z " fill="#F3F3F3" transform="translate(125,0)"/>
</svg>
